<svg height="464pt" viewBox="0 -48 464 464" width="464pt" xmlns="http://www.w3.org/2000/svg"><path d="m32 0h400c17.601562 0 32 14.398438 32 32v192c0 17.601562-14.398438 32-32 32h-400c-17.601562 0-32-14.398438-32-32v-192c0-17.601562 14.398438-32 32-32zm0 0" fill="#e2c8ac"/><path d="m464 272c0 53.019531-42.980469 96-96 96s-96-42.980469-96-96 42.980469-96 96-96 96 42.980469 96 96zm0 0" fill="#e23333"/><path d="m313.859375 315.890625 96.761719-97.835937 11.375 11.25-96.757813 97.835937zm0 0" fill="#fff"/><path d="m314.253906 229.574219 11.316406-11.3125 96.164063 96.164062-11.3125 11.3125zm0 0" fill="#fff"/><g fill="#ceb195"><path d="m216 40h96v16h-96zm0 0"/><path d="m216 72h224v16h-224zm0 0"/><path d="m216 104h224v16h-224zm0 0"/><path d="m216 136h224v16h-224zm0 0"/><path d="m216 168h64v16h-64zm0 0"/><path d="m216 200h48v16h-48zm0 0"/></g><path d="m192 128c0 44.183594-35.816406 80-80 80s-80-35.816406-80-80 35.816406-80 80-80 80 35.816406 80 80zm0 0" fill="#239172"/><path d="m112 208c20.800781 0 41.601562-8 56-23.199219l-6.398438-32.800781c-.800781-4.800781-4-8.800781-8.800781-11.199219l-18.402343-9.601562c-3.199219-1.597657-5.597657-5.597657-4-9.597657l4.800781-14.402343c4-11.199219-2.398438-22.398438-12.800781-26.398438-2.398438-.800781-4.796876-.800781-7.199219-.800781h-6.398438c-11.199219 0-20.800781 9.601562-20.800781 20.800781 0 2.398438 0 4.800781.800781 6.398438l4.800781 14.402343c1.597657 4-.800781 8-4 9.597657l-18.402343 9.601562c-4.800781 2.398438-7.199219 6.398438-8.800781 11.199219l-6.398438 32.800781c14.398438 15.199219 35.199219 23.199219 56 23.199219zm0 0" fill="#e9e9e9"/></svg>